<?xml version="1.0" encoding="utf-8"?>
<svg viewBox="0 0 5000 5000" xmlns="http://www.w3.org/2000/svg">
  <path fill="#FEFEFD" opacity="1.000000" stroke="none" d=" M3455.379639,2763.153809 C3445.868408,2798.835205 3435.617676,2832.572510 3424.002197,2865.895508 C3413.481445,2896.077393 3401.183838,2925.531006 3388.755127,2954.969971 C3377.590576,2981.414551 3364.936279,3007.101074 3351.577637,3032.414062 C3320.781250,3090.768799 3285.822998,3146.545410 3246.492432,3199.601074 C3226.677979,3226.330322 3205.267822,3251.733154 3183.980469,3277.232178 C3174.186035,3288.964600 3162.858398,3299.445312 3151.930420,3310.193115 C3145.703125,3316.317871 3140.518799,3323.169922 3135.529053,3330.259521 C3132.940186,3333.937744 3132.878662,3337.428467 3134.699707,3341.453613 C3139.636963,3352.367432 3144.300293,3363.404785 3149.149902,3374.358887 C3163.695801,3407.217529 3178.275391,3440.061279 3192.849121,3472.907959 C3198.788330,3486.293457 3204.660156,3499.709473 3210.712158,3513.043945 C3225.292969,3545.171387 3240.116699,3577.189697 3254.553467,3609.381592 C3269.257812,3642.170654 3283.504883,3675.164795 3298.160400,3707.976074 C3311.462891,3737.758545 3325.167236,3767.361816 3338.470947,3797.143555 C3353.127686,3829.954346 3367.514648,3862.885498 3382.049316,3895.750977 C3387.702637,3908.534180 3393.364258,3921.314453 3399.149170,3934.038330 C3413.750977,3966.156982 3428.455078,3998.228760 3443.055420,4030.347900 C3449.115234,4043.679199 3455.367432,4056.939453 3460.908447,4070.487061 C3470.030518,4092.790771 3477.361084,4115.829590 3475.648438,4140.187500 C3472.968262,4178.305176 3461.910889,4213.380371 3433.384766,4240.846191 C3425.240967,4248.687012 3417.723389,4257.131348 3408.466309,4263.873047 C3393.082764,4275.076172 3375.750977,4281.804688 3357.688721,4286.615234 C3312.400635,4298.676758 3270.458252,4289.370117 3232.280518,4263.718750 C3212.245605,4250.257324 3196.605713,4232.024414 3184.977051,4210.445801 C3174.480469,4190.968750 3167.866455,4169.987305 3160.042725,4149.494629 C3136.308105,4087.324463 3113.039307,4024.976074 3089.652832,3962.673340 C3073.048828,3918.438721 3056.625244,3874.136230 3039.979248,3829.917480 C3022.161133,3782.584473 3004.103516,3735.342041 2986.287842,3688.008057 C2972.456299,3651.259277 2958.849854,3614.426025 2945.116943,3577.640381 C2937.669678,3557.692139 2930.325195,3537.702881 2922.623291,3517.853271 C2918.540527,3507.330078 2914.562012,3506.162354 2904.170410,3512.105957 C2886.841309,3522.017822 2869.627930,3532.133301 2852.408936,3542.236328 C2824.800537,3558.435303 2795.952393,3572.076416 2766.783447,3585.230225 C2737.625244,3598.379395 2707.946289,3610.041748 2678.128174,3621.557129 C2637.032227,3637.428223 2594.706543,3648.808350 2552.258789,3660.112793 C2514.954102,3670.047363 2476.998779,3676.522949 2439.062988,3683.137939 C2424.706055,3685.641113 2409.753174,3685.170410 2395.627441,3688.449707 C2375.340576,3693.159668 2354.400146,3689.837891 2334.266357,3695.129883 C2329.238525,3696.451660 2323.663574,3695.846924 2318.339111,3695.860596 C2281.676758,3695.954834 2245.013672,3696.161621 2208.352783,3695.943359 C2191.098145,3695.840820 2173.682129,3697.506348 2156.704590,3692.488281 C2154.226807,3691.755859 2151.399414,3692.050293 2148.739502,3692.113281 C2126.665039,3692.635498 2105.210938,3687.822754 2083.492188,3685.044434 C2059.082520,3681.921631 2035.023071,3677.243896 2010.856323,3672.827881 C1957.044067,3662.994141 1904.758301,3647.801758 1852.989868,3630.461426 C1804.295898,3614.151123 1757.137695,3594.281982 1711.001587,3571.735596 C1661.861816,3547.721436 1614.316650,3521.025146 1568.668091,3490.921875 C1566.449829,3489.459229 1564.126343,3488.132812 1561.759644,3486.923828 C1556.933716,3484.457764 1554.205322,3485.073975 1551.690918,3489.317627 C1549.996216,3492.177734 1548.435303,3495.142578 1547.098511,3498.185059 C1529.164185,3539.003174 1511.467163,3579.927002 1493.324707,3620.652344 C1478.696655,3653.488037 1463.493164,3686.067139 1448.643921,3718.804932 C1436.546753,3745.475098 1425.400146,3772.610107 1412.399536,3798.828613 C1390.784302,3842.421143 1355.831909,3870.009033 1308.438354,3881.884277 C1295.874390,3885.032471 1283.236572,3883.204834 1270.683105,3884.249268 C1239.027954,3886.882568 1210.978760,3875.422852 1186.396729,3858.165771 C1155.815063,3836.697021 1133.742188,3807.379883 1124.393799,3770.115479 C1114.779663,3731.791504 1118.804565,3694.595947 1136.564697,3659.537598 C1156.720825,3619.749756 1178.246704,3580.656250 1199.173462,3541.258789 C1200.111206,3539.492920 1201.010620,3537.706543 1201.927979,3535.929932 C1224.237427,3492.719238 1246.498657,3449.483643 1268.872437,3406.306396 C1285.726807,3373.780029 1302.734741,3341.333496 1319.648193,3308.837891 C1321.801758,3304.700195 1323.797729,3300.480469 1325.867554,3296.299072 C1329.602417,3288.753418 1327.932983,3282.406494 1322.329956,3276.272705 C1285.471191,3235.921143 1252.865845,3192.177734 1222.385132,3146.967285 C1203.812378,3119.419434 1187.563721,3090.273438 1170.894531,3061.484375 C1160.225586,3043.057617 1149.984375,3024.312988 1140.780518,3005.121338 C1109.361206,2939.606445 1082.501221,2872.346924 1062.538696,2802.322998 C1051.041138,2761.992188 1040.826538,2721.383301 1033.320435,2680.206299 C1029.287109,2658.079834 1026.222900,2635.644531 1023.088257,2613.311523 C1020.503052,2594.893311 1021.195068,2576.230225 1017.049805,2557.892822 C1014.459167,2546.432373 1016.105652,2534.010010 1015.886841,2522.019043 C1015.741150,2514.036621 1015.736267,2506.133301 1013.746216,2498.217285 C1012.310120,2492.504395 1012.335815,2486.349609 1012.257568,2480.384766 C1012.065369,2465.722168 1012.168152,2451.055664 1012.194458,2436.390625 C1012.211182,2427.074219 1013.155212,2417.922119 1014.562073,2408.640625 C1016.444153,2396.223877 1015.878479,2383.407471 1016.001282,2370.759033 C1016.214844,2348.771729 1019.868835,2327.163818 1022.795471,2305.472656 C1024.392700,2293.633789 1026.461304,2281.850586 1027.760620,2269.981201 C1030.293701,2246.841064 1034.950806,2224.117188 1039.691895,2201.354248 C1049.061768,2156.368164 1061.241333,2112.146240 1075.510010,2068.533203 C1087.304321,2032.482788 1101.218384,1997.214478 1116.375122,1962.376343 C1131.284424,1928.106812 1147.912842,1894.709229 1165.469238,1861.833740 C1193.407959,1809.516357 1226.104858,1760.102417 1261.558716,1712.542603 C1279.448608,1688.543945 1298.858154,1665.819824 1318.226074,1642.993652 C1351.949463,1603.249023 1389.668579,1567.489990 1427.236938,1531.686890 C1454.608887,1505.601318 1484.963257,1482.671021 1515.483154,1460.146484 C1549.783569,1434.832031 1585.141113,1411.076294 1621.906982,1389.634766 C1667.943115,1362.786743 1715.469238,1338.693604 1764.468018,1317.544678 C1798.726440,1302.757812 1833.588257,1289.567627 1868.983032,1277.940552 C1921.453369,1260.704468 1974.971802,1247.025024 2029.273071,1237.084229 C2051.378662,1233.037354 2073.711182,1229.587158 2096.220215,1227.195679 C2126.604980,1223.967896 2156.795410,1219.666016 2187.465088,1219.598755 C2197.996582,1219.575684 2208.556885,1217.236450 2219.037109,1215.540527 C2224.626709,1214.635986 2228.121338,1210.129272 2231.653564,1206.190063 C2242.751465,1193.814087 2253.993408,1181.545898 2264.596436,1168.752441 C2281.145752,1148.784546 2298.113037,1129.215576 2315.610840,1110.064819 C2329.044434,1095.362549 2341.336182,1079.622803 2354.331543,1064.512939 C2365.604248,1051.405762 2377.217773,1038.592407 2388.562744,1025.546265 C2403.823486,1007.996582 2419.007080,990.379089 2434.154053,972.730713 C2444.114014,961.125793 2455.066895,950.485107 2464.563965,938.354553 C2477.243896,922.158569 2492.086426,907.672668 2505.654541,892.150146 C2517.894531,878.146912 2529.780029,863.828796 2541.614014,849.477905 C2551.346924,837.674622 2562.589111,827.309692 2571.985107,815.075256 C2584.102539,799.297424 2598.509521,785.294495 2611.644531,770.276978 C2626.078857,753.773621 2640.069580,736.882202 2654.496094,720.371582 C2660.626709,713.355347 2667.154785,706.647522 2673.908447,700.226929 C2679.482666,694.927795 2683.843018,694.879639 2689.691162,700.277222 C2699.476562,709.308655 2709.390137,718.112549 2719.841797,726.408569 C2728.666016,733.413025 2736.883057,741.202148 2745.599365,748.426758 C2769.136475,767.935608 2791.277344,789.136536 2814.921387,808.507324 C2838.059570,827.463684 2859.425781,848.450256 2883.347656,866.519958 C2897.106201,876.912781 2909.487549,889.132263 2922.453369,900.570129 C2935.417236,912.006592 2948.284912,923.553284 2961.298340,934.932922 C2967.674072,940.508240 2969.833496,940.552490 2977.309814,936.485718 C2986.081787,931.714233 2994.821045,926.876831 3003.686523,922.284729 C3047.459961,899.611145 3091.815918,877.992065 3134.894775,854.070557 C3169.281738,834.975586 3205.302246,819.111206 3239.277100,799.307922 C3244.410156,796.316040 3247.825928,797.226196 3250.924561,802.343933 C3255.749023,810.312012 3260.587402,818.291382 3264.952881,826.513916 C3280.256348,855.338562 3295.317383,884.291687 3310.548828,913.154541 C3336.035156,961.449097 3361.095215,1009.978333 3387.330566,1057.863159 C3398.538818,1078.320190 3408.788818,1099.252686 3419.997803,1119.678955 C3444.348633,1164.054077 3467.751953,1208.920166 3491.314209,1253.713501 C3511.768555,1292.599243 3533.076172,1331.038086 3553.256348,1370.087769 C3574.348145,1410.900269 3596.538574,1451.143555 3617.852295,1491.843262 C3624.261475,1504.082153 3634.322266,1512.704834 3644.297607,1521.433105 C3657.791016,1533.239746 3671.914307,1544.323120 3685.631592,1555.878052 C3702.400391,1570.003418 3719.105957,1584.206055 3735.693359,1598.543335 C3749.275391,1610.283081 3762.619141,1622.297607 3776.115479,1634.137207 C3786.608398,1643.341919 3797.085449,1652.568115 3807.723633,1661.603027 C3832.032715,1682.248413 3856.529541,1702.673706 3880.765137,1723.404175 C3894.407959,1735.073364 3907.551514,1747.325439 3921.162109,1759.033691 C3934.757812,1770.729492 3948.516602,1782.246704 3962.468506,1793.514404 C3972.302979,1801.457153 3980.891846,1810.701782 3991.025635,1818.439941 C4006.310547,1830.111206 4020.342285,1843.484741 4034.410156,1856.664429 C4041.900879,1863.682251 4041.512695,1867.427979 4034.330811,1875.294800 C4029.840332,1880.213135 4024.981201,1884.795288 4020.269043,1889.509888 C3984.454590,1925.340698 3948.612061,1961.143921 3912.828369,1997.005249 C3896.772949,2013.095947 3896.397705,2013.545532 3906.606689,2032.944336 C3922.416748,2062.986084 3938.829346,2092.710449 3954.974609,2122.575928 C3956.559082,2125.506592 3958.059326,2128.483398 3959.602783,2131.436523 C3976.260498,2163.312988 3992.808350,2195.247314 4009.604980,2227.050781 C4032.305908,2270.034180 4055.165283,2312.933594 4078.042236,2355.823486 C4081.483154,2362.274658 4085.582520,2368.374756 4089.014893,2374.829590 C4091.824219,2380.112793 4090.614746,2384.207031 4085.645996,2386.434814 C4060.747314,2397.597656 4035.808105,2408.671143 4010.836426,2419.670410 C3983.432861,2431.740967 3955.982178,2443.704102 3928.545898,2455.700439 C3900.500000,2467.963379 3872.437988,2480.189209 3844.399902,2492.470703 C3829.157959,2499.147217 3813.963135,2505.932373 3798.727051,2512.624023 C3767.654541,2526.270752 3736.533447,2539.807617 3705.498047,2553.539307 C3678.106201,2565.658691 3650.855225,2578.096436 3623.447998,2590.180420 C3597.267334,2601.723145 3570.928467,2612.906982 3544.729004,2624.407715 C3526.444580,2632.433594 3508.312256,2640.805176 3490.043457,2648.867676 C3481.573242,2652.605713 3477.107422,2657.811523 3475.321533,2667.945557 C3469.792480,2699.322266 3462.397217,2730.369873 3455.379639,2763.153809 z" transform="matrix(1, 0, 0, 1, -5.684341886080802e-14, -5.684341886080802e-14)"/>
  <path fill="#01474D" opacity="1.000000" stroke="none" d=" M3416.698730,2602.848633 C3410.524658,2615.824707 3410.979492,2628.730957 3408.909180,2641.112061 C3364.667236,2905.669922 3244.665527,3129.720459 3048.980225,3314.808105 C3038.665527,3317.440430 3036.808594,3309.668945 3034.342285,3304.116699 C2983.031006,3188.604248 2930.387207,3073.687256 2879.597412,2957.942627 C2878.528076,2955.505859 2877.841797,2952.920166 2876.960938,2948.811768 C2876.619385,2938.135498 2883.045654,2932.867188 2888.947754,2927.598145 C2951.214355,2872.006104 2977.167969,2799.101074 2980.570312,2719.051270 C2987.145508,2564.360352 2933.457275,2431.823975 2823.173828,2322.816406 C2804.208984,2304.071045 2782.952637,2287.810547 2759.741943,2274.421387 C2753.656006,2270.910645 2746.749268,2263.939941 2739.960205,2269.542236 C2733.248291,2275.080322 2738.198975,2283.445312 2740.827881,2289.925781 C2762.870117,2344.264160 2785.143311,2398.510498 2807.694824,2452.638916 C2818.458740,2478.474609 2828.247803,2504.709717 2839.674561,2530.272461 C2842.397705,2536.364990 2844.358643,2542.759766 2845.167969,2549.430664 C2847.525879,2568.864746 2836.926514,2587.142578 2819.094238,2594.466064 C2802.884033,2601.123535 2782.900146,2594.796143 2771.418701,2579.039062 C2765.092773,2570.357178 2761.212402,2560.355957 2757.203369,2550.468506 C2721.646729,2462.776611 2685.009521,2375.530029 2648.974854,2288.035400 C2645.934326,2280.652832 2643.197510,2273.100342 2637.676758,2267.029053 C2630.500732,2259.137695 2621.690186,2257.707031 2612.169678,2261.271484 C2601.749512,2265.173096 2599.019775,2273.851562 2600.152832,2283.978516 C2601.202881,2293.361816 2605.412354,2301.839844 2608.904541,2310.467285 C2646.156494,2402.504150 2684.844727,2493.951660 2722.102295,2585.984863 C2732.728516,2612.233887 2726.605469,2630.293945 2704.767090,2642.026367 C2679.144043,2655.791504 2658.495850,2648.738770 2646.582275,2621.203369 C2629.647461,2582.063232 2613.942871,2542.401855 2597.560059,2503.025635 C2576.057861,2451.345459 2554.543457,2399.667725 2533.642334,2347.739014 C2530.157959,2339.082275 2526.752197,2330.319824 2520.883789,2322.931396 C2514.143555,2314.445068 2505.697510,2309.693115 2494.662598,2313.828613 C2483.166260,2318.136963 2478.598877,2327.018555 2479.214355,2339.020264 C2479.634521,2347.210693 2482.866699,2354.494629 2485.876953,2361.912842 C2521.206055,2448.977051 2557.520996,2535.633545 2593.478027,2622.437988 C2596.282959,2629.209229 2599.162842,2635.961914 2601.504639,2642.909912 C2610.489746,2669.566406 2603.525635,2684.656738 2577.500244,2695.151611 C2552.244629,2705.335938 2535.357422,2699.066162 2524.207764,2673.368164 C2491.052979,2596.950928 2460.572021,2519.412109 2428.213135,2442.659180 C2424.259277,2433.280762 2422.909180,2417.259033 2411.511230,2418.268066 C2399.720459,2419.311523 2401.625732,2435.336182 2400.075439,2445.200684 C2382.319580,2558.195557 2404.969482,2663.952148 2459.820312,2763.169434 C2496.069824,2828.739258 2542.898438,2885.145020 2606.865479,2926.240723 C2655.199219,2957.292969 2706.479736,2976.729492 2764.887451,2973.558594 C2774.792480,2973.020752 2784.928223,2972.580078 2795.884033,2977.218994 C2804.158203,2983.875000 2807.160889,2992.077881 2810.193604,3000.183105 C2855.972900,3122.523682 2901.878174,3244.816162 2948.148682,3366.971924 C2951.875000,3376.808838 2956.564209,3386.959961 2948.847412,3398.731934 C2925.097656,3415.019287 2902.703857,3430.612549 2879.657471,3445.172852 C2749.769043,3527.232910 2609.178467,3581.726562 2457.863281,3608.679199 C2384.838623,3621.686768 2311.294434,3628.405029 2237.168945,3627.040527 C1999.566284,3622.666504 1782.786499,3552.861328 1586.841309,3418.483887 C1567.630127,3405.309082 1549.258911,3390.909180 1529.266235,3376.530518 C1523.182251,3370.796875 1524.377686,3364.729736 1526.663086,3359.311768 C1538.926270,3330.238770 1551.319336,3301.212646 1565.342773,3272.927246 C1566.802246,3269.983887 1569.383667,3267.767334 1573.535522,3265.195068 C1585.235229,3261.469971 1593.075195,3266.802246 1600.592041,3272.423828 C1732.451904,3371.040527 1881.954590,3427.984863 2042.214844,3459.552246 C2051.370361,3461.355713 2060.554199,3463.239258 2069.863037,3463.791016 C2087.826660,3464.855469 2100.884277,3455.602539 2104.243652,3439.999512 C2108.044678,3422.345947 2100.639648,3408.817871 2082.860352,3402.408447 C2068.391602,3397.192383 2053.053711,3395.354492 2038.041870,3392.337402 C1938.819458,3372.395752 1843.539185,3340.872314 1753.771362,3293.908691 C1701.732422,3266.684082 1652.038330,3235.609863 1607.520508,3194.507568 C1603.319214,3182.616211 1608.547119,3173.734619 1612.605713,3164.714600 C1678.104492,3019.150146 1742.866577,2873.255859 1808.110107,2727.578857 C1826.267822,2687.035889 1841.133179,2644.814697 1866.241455,2605.996826 C1873.705811,2601.883057 1880.353271,2601.732178 1887.022949,2602.627686 C1958.425049,2612.217285 2022.281738,2590.476562 2079.223145,2550.413086 C2206.053711,2461.176025 2274.569580,2335.947021 2292.141846,2183.525146 C2299.583252,2118.977051 2293.684082,2054.283936 2263.862549,1994.157837 C2206.355225,1878.211182 2099.517578,1845.262329 1984.645386,1885.846558 C1901.979492,1915.052368 1840.364380,1972.583008 1790.986694,2043.682373 C1737.029663,2121.375732 1705.159302,2207.051514 1697.920532,2301.831543 C1691.957275,2379.910400 1705.502686,2452.818359 1749.695557,2518.831543 C1760.525269,2535.008301 1777.276489,2546.015137 1787.150879,2564.706055 C1789.094727,2573.131348 1786.705078,2579.288330 1783.578369,2585.275635 C1752.460815,2644.862549 1721.713257,2704.648438 1690.371338,2764.110840 C1648.479126,2843.589355 1606.677490,2923.113281 1565.682129,3003.053711 C1553.223511,3027.348389 1539.009766,3050.677246 1527.179443,3075.292725 C1524.300781,3081.282227 1520.978149,3087.165283 1512.819824,3090.254395 C1500.718018,3089.331299 1495.633301,3081.017090 1490.127563,3073.641846 C1402.121948,2955.752441 1348.833618,2823.737549 1329.547852,2677.954346 C1327.276733,2660.787109 1325.566284,2643.595703 1324.974854,2626.225342 C1324.201782,2603.515869 1307.991699,2586.694824 1289.859131,2587.994141 C1271.636963,2589.299561 1258.568726,2607.819580 1260.292603,2630.968506 C1275.057861,2829.225342 1343.450562,3005.562500 1476.125000,3157.199219 C1479.713989,3165.408691 1476.832764,3171.557373 1474.097656,3177.620117 C1460.928833,3206.810547 1443.922974,3233.987305 1429.369019,3262.457031 C1426.395264,3268.274170 1422.889526,3274.473145 1413.338867,3272.671143 C1410.056152,3269.140625 1408.103149,3266.461670 1405.847290,3264.068359 C1252.182129,3101.071777 1152.699951,2909.904541 1107.074951,2690.576660 C1086.459717,2591.475586 1079.123169,2491.321289 1084.949097,2390.473877 C1111.807129,1925.559692 1413.133911,1510.972534 1867.712280,1352.425781 C1948.457153,1324.263916 2031.313599,1305.216309 2116.293457,1295.141479 C2161.366699,1289.797729 2206.541016,1287.382446 2253.680176,1286.620605 C2278.453125,1276.602661 2302.640137,1279.492554 2326.167725,1281.186768 C2360.502441,1283.659302 2394.927246,1286.320923 2430.608398,1292.667480 C2479.146240,1302.940063 2526.399170,1310.828857 2572.593018,1324.103638 C2738.462891,1371.769775 2887.307373,1450.958740 3018.471436,1563.118164 C3138.029297,1665.352783 3233.481201,1786.775757 3304.073975,1927.286133 C3367.511719,2053.553711 3407.492920,2187.075684 3422.792969,2327.744385 C3428.486572,2380.089111 3432.505371,2432.586182 3430.466797,2485.261719 C3429.155029,2519.163818 3427.207520,2553.089600 3422.745850,2586.787598 C3422.043213,2592.093750 3421.478271,2597.414551 3416.698730,2602.848633 z" transform="matrix(1, 0, 0, 1, -5.684341886080802e-14, -5.684341886080802e-14)"/>
  <path fill="#F0BD9E" opacity="1.000000" stroke="none" d=" M3417.047363,2603.785645 C3416.001465,2595.336670 3415.983643,2586.658447 3416.912354,2578.082764 C3422.230225,2528.974609 3424.594238,2479.731934 3423.162598,2430.367920 C3417.718750,2242.672119 3372.636719,2065.062988 3282.070557,1900.432129 C3126.174805,1617.045776 2891.608154,1429.514526 2582.866455,1334.385010 C2537.640625,1320.449829 2491.522949,1309.948730 2444.685791,1302.824707 C2442.721680,1302.525757 2440.818115,1301.828247 2437.469727,1300.641724 C2435.290039,1289.405884 2444.285156,1287.316650 2450.846436,1283.856445 C2537.293457,1238.269409 2623.975342,1193.129761 2710.562256,1147.808960 C2785.961426,1108.343750 2861.530518,1069.202759 2936.757812,1029.408936 C2942.039795,1026.614868 2947.098633,1023.260803 2954.947754,1023.563232 C2959.618408,1022.663635 2963.084229,1022.385498 2965.944580,1020.922729 C2987.859863,1009.715515 3009.660400,998.283997 3031.486572,986.903015 C3033.844727,985.673340 3036.108643,984.263306 3038.466553,983.033691 C3095.099609,953.498047 3151.733398,923.963623 3208.386475,894.466614 C3215.516357,890.754272 3219.229004,891.631287 3223.189697,898.742493 C3231.928223,914.432373 3240.403320,930.271301 3248.824463,946.135071 C3263.797119,974.341675 3278.534668,1002.673340 3293.577637,1030.842163 C3320.839355,1081.891846 3348.273682,1132.849365 3375.593994,1183.867798 C3387.213867,1205.566895 3398.801758,1227.283691 3410.272461,1249.062012 C3428.565674,1283.794189 3446.607178,1318.659424 3465.009277,1353.333496 C3497.442139,1414.444336 3530.159668,1475.404175 3562.493652,1536.566895 C3566.637695,1544.405029 3572.615479,1550.505981 3578.816406,1558.202637 C3619.635986,1623.010742 3651.181641,1691.421753 3687.348145,1757.314697 C3728.650146,1832.564331 3767.466309,1909.165039 3808.897705,1984.358643 C3810.516357,1987.295776 3811.893799,1990.294556 3812.499512,1995.131836 C3811.261475,2002.209839 3813.429199,2007.016724 3815.979980,2011.797241 C3831.956543,2041.739136 3847.885254,2071.706787 3863.856934,2101.651367 C3865.421631,2104.584473 3867.263916,2107.369629 3868.821777,2110.305908 C3906.561523,2181.438965 3944.281006,2252.582764 3981.998779,2323.727539 C3983.557617,2326.668457 3985.100342,2329.619141 3986.585449,2332.597656 C3994.663330,2348.796875 3994.630127,2348.923584 3979.177002,2356.565674 C3974.403320,2358.926758 3969.643555,2361.333496 3964.764893,2363.461426 C3917.206299,2384.205322 3869.572510,2404.777832 3822.063477,2425.634766 C3782.467773,2443.017822 3743.045654,2460.796387 3703.481689,2478.252930 C3665.138916,2495.170654 3626.690674,2511.848877 3588.330566,2528.727783 C3549.357422,2545.876221 3510.441406,2563.155518 3471.487793,2580.348633 C3453.845215,2588.135986 3436.171875,2595.854248 3417.047363,2603.785645 z" transform="matrix(1, 0, 0, 1, -5.684341886080802e-14, -5.684341886080802e-14)"/>
  <path fill="#E2E2E2" opacity="1.000000" stroke="none" d=" M1868.034790,2606.168457 C1846.600952,2655.707520 1825.422729,2703.791748 1804.023926,2751.777832 C1738.997559,2897.597168 1673.886108,3043.378418 1608.693604,3190.596436 C1607.154053,3220.377441 1593.481567,3243.616455 1576.422607,3266.834473 C1571.266479,3270.765625 1570.338379,3275.557129 1568.457520,3279.712646 C1556.380737,3306.393799 1544.442261,3333.138184 1532.585327,3359.917969 C1530.721680,3364.127197 1529.503540,3368.621826 1528.010742,3374.483887 C1522.049438,3380.829590 1519.981079,3388.114502 1516.832520,3394.618408 C1512.204224,3404.179688 1508.343628,3414.109863 1504.056030,3423.838867 C1485.031616,3467.008789 1466.035645,3510.191650 1446.893921,3553.310059 C1438.801636,3571.538574 1430.278320,3589.575684 1422.121582,3607.776123 C1406.087036,3643.554688 1390.215454,3679.406250 1374.188110,3715.188232 C1366.579224,3732.175781 1358.700928,3749.042236 1351.063354,3766.017090 C1339.904175,3790.818359 1320.083130,3805.096191 1294.780640,3812.961670 C1281.023804,3817.238525 1267.366821,3817.314941 1253.642334,3813.037842 C1230.636353,3805.867920 1211.647095,3793.629639 1199.875610,3771.698730 C1183.959229,3742.045654 1186.879028,3713.069092 1202.326416,3684.401611 C1206.737671,3676.215088 1211.629883,3668.282471 1215.899048,3660.025146 C1240.648682,3612.156006 1264.496216,3563.799316 1290.235840,3516.470703 C1306.140137,3487.226807 1320.109619,3457.008057 1336.336792,3427.996338 C1352.590454,3398.937500 1367.091675,3369.017334 1382.408936,3339.499023 C1390.061279,3324.751709 1398.242554,3310.279541 1406.120605,3295.648682 C1409.607788,3289.172363 1412.869995,3282.591797 1412.096558,3273.276855 C1414.665649,3271.443359 1417.571777,3272.233398 1419.163330,3269.369141 C1422.038208,3264.195312 1424.902954,3259.013428 1427.645020,3253.768555 C1443.498901,3223.442139 1459.315674,3193.096436 1475.317139,3161.374512 C1471.700073,3148.391846 1478.984985,3139.629883 1484.098633,3130.998535 C1492.351318,3117.069580 1497.683838,3101.193115 1511.321289,3089.048340 C1518.529907,3082.574463 1520.920898,3074.763672 1524.569214,3067.785645 C1611.208862,2902.061035 1697.715698,2736.267090 1784.933716,2569.188965 C1787.846191,2566.206543 1790.647949,2565.070068 1792.973267,2566.448730 C1817.220459,2580.826172 1843.962524,2590.275879 1868.034790,2606.168457 z" transform="matrix(1, 0, 0, 1, -5.684341886080802e-14, -5.684341886080802e-14)"/>
  <path fill="#E2E3E3" opacity="1.000000" stroke="none" d=" M2949.174316,3400.286133 C2951.731934,3394.854736 2949.527100,3389.805908 2947.671387,3384.845947 C2939.970459,3364.265625 2932.179199,3343.718750 2924.448975,3323.148926 C2881.816406,3209.704346 2839.192139,3096.257080 2796.301758,2981.354980 C2795.985352,2979.243164 2795.679688,2978.124756 2795.915039,2977.996338 C2821.782715,2963.867432 2847.607422,2949.598877 2878.904053,2946.988770 C2884.859131,2952.094238 2886.158936,2958.097168 2888.561523,2963.458008 C2939.023926,3076.054688 2989.428955,3188.677246 3039.862305,3301.287109 C3041.759033,3305.521973 3043.825928,3309.680420 3046.876953,3314.740234 C3051.313721,3324.966797 3054.180908,3334.549072 3058.165527,3343.641602 C3066.444336,3362.531738 3075.499756,3381.080078 3083.901367,3399.918213 C3097.716553,3430.893311 3111.196045,3462.018311 3124.954590,3493.019043 C3132.781982,3510.656494 3140.980469,3528.129150 3148.838867,3545.753174 C3164.006836,3579.770508 3179.001709,3613.864990 3194.170898,3647.881836 C3201.487305,3664.289062 3209.052734,3680.584961 3216.476318,3696.944580 C3236.544922,3741.170410 3256.734375,3785.342529 3276.620605,3829.650146 C3298.136719,3877.589111 3319.323486,3925.676270 3340.730225,3973.664551 C3357.802490,4011.936279 3374.865234,4050.213135 3392.181396,4088.374756 C3400.249268,4106.153809 3405.058350,4124.104004 3404.367188,4144.143066 C3403.025391,4183.042480 3367.237549,4219.589355 3328.330078,4220.085449 C3312.279785,4220.290039 3296.694336,4220.223145 3282.028564,4211.382324 C3264.356689,4200.729492 3249.880371,4187.492188 3242.305908,4168.155273 C3229.935791,4136.576660 3218.330566,4104.698730 3206.332031,4072.973877 C3189.392090,4028.183594 3172.353027,3983.431396 3155.424805,3938.636963 C3146.020996,3913.753418 3136.790771,3888.804688 3127.421143,3863.908203 C3112.429199,3824.070557 3097.358154,3784.262451 3082.376221,3744.421143 C3073.480225,3720.764404 3064.730225,3697.053223 3055.844727,3673.392334 C3040.646240,3632.921631 3025.340820,3592.490723 3010.178223,3552.006348 C2996.414307,3515.256104 2982.782227,3478.456787 2969.089844,3441.679932 C2964.680664,3429.837158 2960.228760,3418.009766 2955.878662,3406.145508 C2954.892090,3403.454834 2953.180664,3401.668701 2949.174316,3400.286133 z" transform="matrix(1, 0, 0, 1, -5.684341886080802e-14, -5.684341886080802e-14)"/>
  <path fill="#E8A885" opacity="1.000000" stroke="none" d=" M2955.670898,1022.402039 C2946.196045,1032.072998 2934.563477,1038.442017 2922.772217,1044.517334 C2873.048584,1070.136963 2822.846680,1094.872681 2773.705811,1121.563232 C2743.256592,1138.101562 2711.743408,1152.550659 2681.616211,1169.549316 C2653.739014,1185.278687 2624.436035,1198.200195 2596.700684,1214.010376 C2567.146973,1230.857300 2535.929199,1244.418213 2506.432861,1261.174316 C2483.837158,1274.010132 2460.200439,1284.783813 2436.915771,1298.917236 C2423.263916,1301.076782 2410.989990,1297.277588 2398.499268,1295.758057 C2352.231934,1290.129395 2305.829834,1287.225952 2257.362793,1286.639526 C2267.873047,1271.485107 2280.024170,1256.523804 2292.689941,1242.011353 C2334.256348,1194.384766 2376.122314,1147.019165 2417.661621,1099.368896 C2466.628662,1043.198120 2515.299805,986.769470 2564.244141,930.578735 C2596.147461,893.951965 2628.319580,857.559631 2660.345459,821.039551 C2667.362061,813.038452 2674.086182,804.773438 2681.289307,796.946655 C2685.919678,791.915527 2688.209961,791.869446 2693.197510,796.023010 C2701.888916,803.261169 2710.397461,810.719116 2718.972900,818.096436 C2750.246582,845.001343 2781.490234,871.941467 2812.794434,898.810669 C2846.623779,927.847473 2880.543945,956.778015 2914.351562,985.840149 C2927.970947,997.547974 2941.395508,1009.482361 2955.670898,1022.402039 z" transform="matrix(1, 0, 0, 1, -5.684341886080802e-14, -5.684341886080802e-14)"/>
  <path fill="#E8A985" opacity="1.000000" stroke="none" d=" M3813.813477,1995.855713 C3803.343994,1991.441895 3799.521240,1981.792725 3794.890625,1973.214478 C3778.490234,1942.832520 3762.929688,1911.998413 3746.703613,1881.520386 C3730.176514,1850.476807 3713.239258,1819.651611 3696.486084,1788.728394 C3695.853027,1787.559692 3695.276123,1786.360596 3694.660645,1785.182373 C3678.362549,1753.990234 3662.245117,1722.702026 3645.711914,1691.635010 C3629.501709,1661.175415 3612.560791,1631.102051 3596.572266,1600.528687 C3590.163574,1588.274292 3581.885742,1576.680664 3579.677246,1560.866699 C3599.486328,1572.594604 3616.506836,1589.519897 3634.697510,1604.987427 C3697.979980,1658.796021 3760.947266,1712.975952 3823.929688,1767.136230 C3859.704346,1797.899170 3895.275879,1828.898193 3930.937500,1859.792725 C3932.945312,1861.532349 3935.041016,1863.187012 3936.910400,1865.065796 C3939.057373,1867.223999 3939.173340,1869.874268 3937.364014,1872.195068 C3935.329346,1874.804688 3932.972656,1877.180176 3930.625244,1879.526245 C3892.063965,1918.068115 3853.481934,1956.589722 3813.813477,1995.855713 z" transform="matrix(1, 0, 0, 1, -5.684341886080802e-14, -5.684341886080802e-14)"/>
  <path fill="#F0F0F0" opacity="1.000000" stroke="none" d=" M2880.372070,2946.564941 C2873.340820,2947.472656 2867.267822,2949.831787 2861.690430,2953.460205 C2842.246582,2966.109863 2820.827881,2973.544922 2797.115723,2978.874023 C2792.051270,2979.935791 2788.030029,2979.646240 2784.082031,2980.057617 C2723.320801,2986.387207 2667.901855,2970.505371 2616.124512,2939.652832 C2566.128662,2909.862305 2524.991455,2870.354004 2490.879639,2823.516602 C2436.068848,2748.259033 2402.348389,2664.521240 2390.970215,2571.918457 C2385.151855,2524.565674 2386.216064,2477.516113 2395.916016,2430.742920 C2396.861572,2426.184326 2398.218994,2421.710938 2399.160889,2417.151855 C2400.534424,2410.502930 2404.397217,2406.026123 2411.147705,2405.752930 C2417.963623,2405.477783 2421.881592,2410.091309 2424.157471,2416.220947 C2425.547363,2419.964844 2427.156738,2423.627686 2428.683594,2427.320312 C2461.505859,2506.698242 2494.330566,2586.075439 2527.152100,2665.453857 C2528.933105,2669.760742 2530.425049,2674.211426 2532.510254,2678.364258 C2539.846191,2692.972168 2551.944336,2698.006104 2567.219238,2692.797607 C2572.884033,2690.865967 2578.545166,2688.770020 2583.908447,2686.138184 C2598.384521,2679.034668 2603.482178,2666.708740 2598.476562,2651.248535 C2597.044922,2646.826904 2594.951416,2642.620117 2593.173828,2638.309814 C2554.843262,2545.357178 2516.514648,2452.403564 2478.185547,2359.450439 C2476.409180,2355.141846 2474.292480,2350.938965 2472.917969,2346.505615 C2467.488525,2328.989990 2474.292969,2313.312256 2489.971191,2306.655762 C2505.265869,2300.162109 2521.579102,2306.800781 2529.700928,2323.291992 C2533.518066,2331.042969 2536.544922,2339.187012 2539.843262,2347.188721 C2576.127930,2435.222412 2612.388916,2523.266113 2648.683350,2611.295898 C2650.966797,2616.834229 2653.094971,2622.487549 2655.953613,2627.728516 C2663.466553,2641.502930 2676.432861,2646.518066 2691.483154,2641.501465 C2697.145996,2639.614014 2702.865234,2637.453125 2707.971680,2634.426514 C2720.123047,2627.224854 2725.092041,2613.662598 2720.937500,2599.938721 C2719.206055,2594.218262 2716.890869,2588.659668 2714.604492,2583.125244 C2676.721436,2491.429932 2638.796631,2399.751709 2600.897461,2308.063232 C2598.862793,2303.140869 2597.311279,2297.989014 2594.941406,2293.239990 C2587.813232,2278.954834 2593.460938,2260.118164 2610.259521,2253.310303 C2625.908203,2246.968506 2640.675293,2254.156006 2648.883301,2271.828613 C2651.406006,2277.260010 2653.619629,2282.837158 2655.907471,2288.375488 C2693.023438,2378.228271 2730.127197,2468.086426 2767.241699,2557.939941 C2769.274658,2562.861328 2770.978027,2567.973145 2773.522217,2572.619873 C2782.630371,2589.255859 2800.985352,2596.102783 2817.792969,2589.451416 C2834.919678,2582.673584 2843.968750,2565.539062 2839.518555,2547.280518 C2838.113037,2541.513672 2835.383545,2536.053955 2833.103760,2530.517822 C2800.145020,2450.477051 2767.148438,2370.451660 2734.203613,2290.405029 C2731.930176,2284.881348 2729.281982,2279.368408 2728.063721,2273.585938 C2726.078125,2264.160400 2734.714600,2256.296143 2743.944336,2259.055908 C2748.957764,2260.554688 2753.691895,2263.283203 2758.246826,2265.974121 C2797.064941,2288.906738 2830.832520,2317.917236 2860.060059,2352.122559 C2923.871094,2426.801270 2963.635986,2512.811523 2980.698486,2609.479980 C2991.379395,2669.990479 2990.887695,2730.170654 2976.019775,2789.960938 C2967.595947,2823.836914 2954.303955,2855.671875 2934.775391,2884.743896 C2922.438477,2903.110107 2907.928711,2919.521240 2890.949951,2933.779541 C2887.038086,2937.064453 2881.399414,2939.031982 2880.372070,2946.564941 z" transform="matrix(1, 0, 0, 1, -5.684341886080802e-14, -5.684341886080802e-14)"/>
  <path fill="#F0F1F1" opacity="1.000000" stroke="none" d=" M1869.630005,2607.513428 C1866.841309,2606.860352 1865.908325,2605.569336 1864.748657,2605.315918 C1838.310791,2599.535400 1815.185181,2586.822510 1793.307739,2571.445068 C1791.689941,2570.307617 1789.903809,2569.409424 1786.908325,2568.145752 C1783.931519,2565.859619 1782.484009,2563.550293 1780.517944,2561.835938 C1737.684570,2524.486084 1713.096069,2476.556396 1700.091797,2422.143555 C1687.854248,2370.938232 1687.099243,2319.229736 1694.858154,2267.274658 C1710.119995,2165.077637 1752.081421,2075.055176 1819.131226,1996.770020 C1859.980469,1949.075928 1908.354614,1910.910400 1966.389404,1885.887817 C2001.024414,1870.954346 2037.034424,1862.524780 2075.040527,1862.859985 C2145.239990,1863.479492 2201.105957,1892.371338 2243.520020,1947.680542 C2268.265625,1979.949463 2283.180908,2016.874634 2291.947266,2056.335938 C2305.021973,2115.193604 2303.998779,2174.270508 2291.647949,2232.939453 C2268.499756,2342.897705 2217.375488,2437.738770 2135.042480,2514.899902 C2098.720703,2548.939697 2057.703613,2575.945312 2010.769043,2593.341309 C1968.856201,2608.876221 1925.962402,2616.151611 1881.320435,2608.372803 C1878.047485,2607.802490 1874.695312,2607.686279 1869.630005,2607.513428 z" transform="matrix(1, 0, 0, 1, -5.684341886080802e-14, -5.684341886080802e-14)"/>
  <path fill="#003F44" opacity="1.000000" stroke="none" d=" M1511.317505,3087.602783 C1509.860107,3099.141602 1503.272217,3108.236328 1498.357178,3118.100098 C1491.673340,3131.513428 1484.406860,3144.636719 1476.439697,3158.937988 C1467.235718,3159.294189 1462.676636,3153.223633 1458.233521,3147.494629 C1441.155029,3125.474365 1423.776855,3103.651367 1407.609253,3080.971436 C1395.664795,3064.215332 1385.495239,3046.199219 1374.408569,3028.824951 C1360.755981,3007.430176 1349.670776,2984.641357 1339.104126,2961.680908 C1328.550171,2938.748535 1319.713013,2915.031006 1309.865356,2891.766846 C1296.334351,2859.801514 1287.497803,2826.309326 1278.741211,2792.909424 C1272.535645,2769.239502 1267.641113,2745.154053 1263.338257,2720.951660 C1260.546997,2705.250977 1261.367432,2689.148926 1256.683228,2673.697998 C1255.007202,2668.169434 1256.268066,2661.782227 1255.960693,2655.798340 C1255.654541,2649.838135 1256.052002,2643.594238 1254.368286,2638.009033 C1251.730225,2629.257568 1253.337524,2621.304932 1254.677979,2612.615479 C1256.635864,2599.923340 1264.492432,2592.553955 1273.504150,2585.665527 C1280.736572,2580.137939 1289.386719,2578.921387 1298.259033,2580.463623 C1313.283936,2583.075928 1330.087891,2601.120117 1331.828491,2616.356689 C1332.129639,2618.992676 1332.054688,2621.686035 1331.981567,2624.348145 C1331.302612,2649.038818 1335.769287,2673.163818 1339.240234,2697.471191 C1343.379639,2726.459229 1349.611206,2754.959961 1356.703247,2783.275635 C1365.604858,2818.815186 1378.048218,2853.218262 1391.568115,2887.264648 C1404.878296,2920.783691 1422.126099,2952.383301 1438.547363,2984.348389 C1446.697754,3000.213379 1458.138428,3014.354004 1467.391357,3029.696289 C1477.364502,3046.232666 1489.280273,3061.334961 1500.459595,3076.988037 C1503.206787,3080.834473 1506.092163,3084.399170 1511.317505,3087.602783 z" transform="matrix(1, 0, 0, 1, -5.684341886080802e-14, -5.684341886080802e-14)"/>
  <path fill="#003F44" opacity="1.000000" stroke="none" d=" M1576.693359,3267.802734 C1577.010986,3257.266602 1582.654541,3248.338867 1586.783081,3238.824463 C1593.261108,3223.895508 1600.111206,3209.128174 1607.691528,3193.155273 C1611.948120,3192.432129 1614.970215,3193.551270 1617.610474,3195.817139 C1651.485962,3224.894531 1688.664307,3249.130859 1727.023804,3271.838867 C1749.988770,3285.433594 1773.749268,3297.375488 1797.831665,3308.584961 C1834.585083,3325.692383 1872.481934,3340.041748 1911.139893,3352.447266 C1957.327026,3367.268799 2004.142456,3379.366699 2051.826660,3388.239014 C2064.189209,3390.539307 2076.654541,3392.987549 2088.552490,3396.935791 C2112.705811,3404.950439 2114.921631,3423.899902 2110.933594,3443.841064 C2106.762451,3464.698486 2084.990234,3474.389893 2068.103516,3471.097900 C2010.164795,3459.803467 1952.453857,3447.792969 1896.254395,3428.984863 C1858.419922,3416.322998 1821.349609,3402.074219 1784.598022,3386.626709 C1723.593140,3360.985107 1667.433594,3326.982666 1612.892334,3290.010742 C1605.218140,3284.809082 1598.039917,3278.840576 1590.884644,3272.921875 C1587.101685,3269.792480 1583.062500,3267.991455 1576.693359,3267.802734 z" transform="matrix(1, 0, 0, 1, -5.684341886080802e-14, -5.684341886080802e-14)"/>
  <path fill="#3D6D71" opacity="1.000000" stroke="none" d=" M2916.968750,1719.153320 C2906.484619,1707.901733 2895.947754,1698.619019 2888.084717,1686.913330 C2886.622803,1684.736816 2884.555908,1682.920410 2882.587646,1681.136963 C2842.635010,1644.928955 2801.431885,1610.560181 2753.773438,1584.410034 C2726.802490,1569.611084 2698.993164,1557.381836 2669.805908,1548.007202 C2666.639648,1546.990479 2663.468018,1545.976074 2660.351807,1544.818237 C2644.211914,1538.820312 2638.292236,1529.538696 2639.902100,1512.864258 C2641.350342,1497.869995 2651.414307,1487.417847 2666.930176,1485.350708 C2670.078125,1484.931152 2673.513428,1485.645630 2676.664795,1486.438110 C2701.890137,1492.781494 2726.205566,1501.915039 2749.608643,1513.023926 C2795.435791,1534.776611 2837.688721,1562.176514 2877.034180,1594.380981 C2906.006592,1618.094971 2932.137695,1644.650757 2957.187256,1672.126587 C2980.428223,1697.619019 3000.879395,1725.633179 3020.129150,1754.380859 C3020.869629,1755.486450 3021.699463,1756.535278 3022.395508,1757.667236 C3036.939697,1781.313477 3021.626953,1799.885254 3002.145996,1805.994629 C2992.358398,1809.064209 2982.417969,1804.828247 2975.350342,1796.716675 C2970.996582,1791.719604 2967.002930,1786.334106 2963.416016,1780.757202 C2949.719482,1759.461060 2933.523926,1740.061768 2916.968750,1719.153320 z" transform="matrix(1, 0, 0, 1, -5.684341886080802e-14, -5.684341886080802e-14)"/>
  <path fill="#3C6D71" opacity="1.000000" stroke="none" d=" M3055.600830,1858.537476 C3072.504883,1852.644897 3083.963379,1860.774048 3095.135010,1869.567383 C3103.632812,1876.256348 3109.289795,1885.493652 3115.646973,1893.959717 C3134.896240,1919.594482 3150.565918,1947.380493 3164.405518,1976.313477 C3171.611816,1991.378784 3165.535645,2005.798706 3155.971436,2014.142456 C3144.298828,2024.325439 3121.988037,2022.038452 3113.112549,2009.299927 C3109.713623,2004.421387 3107.269287,1998.835083 3104.715088,1993.418213 C3096.742432,1976.512817 3087.306152,1960.504395 3076.826904,1945.014526 C3068.962158,1933.389526 3060.938477,1922.042969 3050.572266,1912.470093 C3046.680664,1908.876343 3042.848145,1905.181152 3040.556885,1900.161987 C3033.454590,1884.602539 3037.428955,1872.492676 3055.600830,1858.537476 z" transform="matrix(1, 0, 0, 1, -5.684341886080802e-14, -5.684341886080802e-14)"/>
  <path fill="#E6E6E6" opacity="1.000000" stroke="none" d=" M2610.129395,2856.424561 C2616.309082,2858.087646 2619.627686,2861.429443 2622.793457,2864.838867 C2633.291260,2876.144775 2645.919189,2884.780762 2658.507812,2893.439453 C2680.450439,2908.532471 2704.347656,2916.430420 2731.456299,2916.328857 C2755.556641,2916.238525 2777.511719,2911.136963 2797.414551,2897.562744 C2805.305420,2892.180664 2813.177979,2891.095215 2821.429443,2896.909912 C2828.011230,2901.548096 2829.803467,2909.452881 2825.123291,2916.061279 C2821.229980,2921.558105 2816.180664,2925.768066 2810.121094,2928.947266 C2791.784668,2938.566650 2772.856201,2945.071777 2752.111816,2948.841309 C2721.556641,2954.394043 2694.302002,2946.541016 2667.122314,2935.480225 C2640.073975,2924.473145 2618.307617,2906.033447 2598.796387,2884.723877 C2597.004883,2882.767334 2594.947266,2880.822266 2593.883789,2878.477295 C2591.294434,2872.765625 2590.987305,2866.711426 2594.346191,2861.224121 C2597.583740,2855.935791 2603.187500,2855.994385 2610.129395,2856.424561 z" transform="matrix(1, 0, 0, 1, -5.684341886080802e-14, -5.684341886080802e-14)"/>
  <path fill="#E6E6E6" opacity="1.000000" stroke="none" d=" M1871.952393,2092.093262 C1884.560791,2077.457031 1895.109253,2062.974854 1907.589600,2049.968018 C1924.765747,2032.067505 1943.884033,2016.510376 1964.241333,2002.936890 C1986.392456,1988.167236 2010.768921,1975.631104 2037.597046,1973.012939 C2065.875488,1970.253174 2094.775879,1968.298340 2121.148438,1984.366333 C2143.342041,1997.888428 2160.044922,2016.262939 2173.087402,2038.334839 C2183.039795,2055.176758 2187.727295,2073.820557 2192.024414,2092.716309 C2198.469482,2121.056396 2198.027588,2149.992432 2195.189453,2178.153809 C2190.928467,2220.434082 2180.535645,2261.599609 2162.159180,2300.691895 C2150.808838,2324.837646 2138.189453,2348.146729 2124.306885,2370.734863 C2104.674072,2402.678955 2079.350098,2429.797607 2050.067383,2453.340088 C2038.651611,2462.518066 2027.195679,2471.494385 2014.859131,2479.407959 C1995.573486,2491.778809 1974.838745,2500.254395 1952.237915,2504.194824 C1943.102661,2505.787842 1934.233032,2508.207764 1924.713257,2508.166260 C1891.205078,2508.019531 1863.005493,2497.083252 1838.618408,2473.192871 C1808.836304,2444.017090 1795.021851,2408.760986 1792.043335,2368.284668 C1791.262695,2357.678223 1787.585693,2347.659180 1787.773926,2336.756104 C1788.234497,2310.072266 1792.406982,2283.914551 1797.490356,2257.900391 C1806.520020,2211.689697 1825.633423,2169.240967 1848.150635,2128.285645 C1854.855713,2116.090576 1863.508057,2104.965820 1871.952393,2092.093262 z" transform="matrix(1, 0, 0, 1, -5.684341886080802e-14, -5.684341886080802e-14)"/>
  <path fill="#E6E6E6" opacity="1.000000" stroke="none" d=" M1828.256348,2520.128174 C1835.716919,2523.357178 1841.918701,2525.771973 1847.923462,2528.604492 C1852.703491,2530.859375 1857.591797,2533.155518 1861.800171,2536.283203 C1867.023804,2540.165039 1869.138550,2545.924561 1866.967407,2552.278320 C1864.912842,2558.291260 1860.590088,2562.627197 1854.069092,2563.407471 C1850.212646,2563.868896 1845.888672,2563.832764 1842.297974,2562.552734 C1818.320312,2554.008301 1795.235352,2543.864746 1777.952271,2524.023926 C1770.542236,2515.517090 1760.690063,2509.100098 1755.399170,2498.801758 C1745.123413,2478.801025 1734.882568,2459.178711 1731.168945,2436.125244 C1727.839111,2415.453369 1728.193970,2395.047363 1728.261597,2374.504639 C1728.304199,2361.577637 1736.932617,2354.793213 1749.054565,2356.328857 C1754.964355,2357.077393 1759.098877,2360.517822 1759.440186,2366.586182 C1760.037964,2377.216309 1760.085083,2387.893066 1759.948608,2398.544922 C1759.698120,2418.100586 1763.742432,2437.219971 1770.369385,2455.080322 C1777.237183,2473.589355 1787.758423,2490.740234 1804.443237,2503.164307 C1811.873169,2508.697266 1817.994507,2515.987549 1828.256348,2520.128174 z" transform="matrix(1, 0, 0, 1, -5.684341886080802e-14, -5.684341886080802e-14)"/>
</svg>