<?xml version="1.0" encoding="UTF-8"?>
<svg version="1.1" xmlns="http://www.w3.org/2000/svg" width="512" height="512">
<path d="M0 0 C7.50936354 4.47780567 11.75935248 10.22204995 15.421875 18.0703125 C16.44067853 22.79385613 16.26350763 27.44544926 16.109375 32.2578125 C17.97916016 32.39509766 17.97916016 32.39509766 19.88671875 32.53515625 C25.74298231 33.19297058 31.10987224 34.92935623 36.671875 36.8203125 C37.72600586 37.17601318 38.78013672 37.53171387 39.86621094 37.89819336 C48.72562127 40.97005939 56.92359753 44.71118723 65.109375 49.2578125 C66.12515625 49.79792969 67.1409375 50.33804688 68.1875 50.89453125 C86.95543923 61.25704315 104.30645923 76.06871262 117.109375 93.2578125 C117.70975586 94.05372803 117.70975586 94.05372803 118.32226562 94.86572266 C138.38183258 121.5732951 152.80551734 155.34021091 152.109375 189.2578125 C152.92921875 189.21140625 153.7490625 189.165 154.59375 189.1171875 C155.67140625 189.08109375 156.7490625 189.045 157.859375 189.0078125 C158.92671875 188.96140625 159.9940625 188.915 161.09375 188.8671875 C164.109375 189.2578125 164.109375 189.2578125 166.5 190.7109375 C169.886287 196.06981887 168.28105199 201.91095973 166.97521973 207.76907349 C166.32648622 210.51060997 165.62829118 213.23729611 164.91113281 215.96166992 C164.35712764 218.07890119 163.83012012 220.20169223 163.3046875 222.32617188 C162.954726 223.68530908 162.60321764 225.04404913 162.25 226.40234375 C161.93579102 227.62284424 161.62158203 228.84334473 161.29785156 230.10083008 C159.99589921 233.5592413 158.97223661 234.96639505 156.109375 237.2578125 C153.41144562 237.75920916 153.41144562 237.75920916 150.25598145 237.76117706 C149.05219597 237.77160805 147.84841049 237.78203904 146.60814667 237.79278612 C145.27066308 237.7841377 143.93318189 237.77511107 142.59570312 237.76574707 C141.17616383 237.77035469 139.75662931 237.77670668 138.3371048 237.78465605 C134.4315939 237.80139186 130.52647274 237.79308395 126.62096024 237.78071117 C122.41093522 237.77168028 118.20097837 237.78562063 113.9909668 237.79663086 C105.74170418 237.8144417 97.49258693 237.81056471 89.24331856 237.7989803 C82.5405368 237.78995631 75.83779585 237.78871748 69.13500977 237.79307556 C68.18198235 237.79368849 67.22895494 237.79430143 66.2470479 237.79493293 C64.31114895 237.7962118 62.37525001 237.79750865 60.43935108 237.7988233 C42.27528017 237.81023661 24.11128993 237.79710362 5.94723225 237.77562183 C-9.64719808 237.75775017 -25.24150932 237.76085407 -40.8359375 237.77929688 C-58.93385022 237.80069034 -77.03169219 237.8091379 -95.12961578 237.79684782 C-97.0584971 237.79557359 -98.98737843 237.79431611 -100.91625977 237.79307556 C-102.33992646 237.79214991 -102.33992646 237.79214991 -103.79235411 237.79120556 C-110.48910943 237.78774808 -117.18581997 237.79358955 -123.88256836 237.80299377 C-132.04079629 237.81419822 -140.19887023 237.81120655 -148.35708046 237.7898708 C-152.52163801 237.77933935 -156.68593858 237.77527398 -160.85049438 237.78846741 C-164.66012848 237.80035414 -168.46926648 237.79389098 -172.27885532 237.7725572 C-173.65968108 237.76807523 -175.04054843 237.77039306 -176.42134762 237.78006035 C-178.29328034 237.79216462 -180.16532986 237.77739738 -182.03723145 237.76117706 C-183.59918621 237.76020295 -183.59918621 237.76020295 -185.19269562 237.75920916 C-188.61146112 237.12384872 -189.76184454 235.95654016 -191.890625 233.2578125 C-193.07910156 230.10083008 -193.07910156 230.10083008 -194.03125 226.40234375 C-194.20315857 225.74127121 -194.37506714 225.08019867 -194.55218506 224.39909363 C-194.9116492 223.00305124 -195.26424441 221.60522423 -195.61035156 220.20581055 C-196.13581625 218.08967813 -196.68713958 215.98158815 -197.2421875 213.87304688 C-200.77807516 200.14986496 -200.77807516 200.14986496 -199.890625 193.2578125 C-198.28125 190.7109375 -198.28125 190.7109375 -195.890625 189.2578125 C-192.875 188.8671875 -192.875 188.8671875 -189.640625 189.0078125 C-188.56296875 189.04390625 -187.4853125 189.08 -186.375 189.1171875 C-185.55515625 189.16359375 -184.7353125 189.21 -183.890625 189.2578125 C-183.86935547 187.81728516 -183.86935547 187.81728516 -183.84765625 186.34765625 C-182.75968804 148.93828764 -166.69837514 112.91115751 -141.890625 85.2578125 C-141.1171875 84.36320312 -140.34375 83.46859375 -139.546875 82.546875 C-117.25479172 57.03656843 -85.08140011 38.97551931 -51.890625 32.2578125 C-50.570625 32.2578125 -49.250625 32.2578125 -47.890625 32.2578125 C-47.93703125 31.57976562 -47.9834375 30.90171875 -48.03125 30.203125 C-48.37182379 21.42118649 -46.65281218 14.41837988 -41.140625 7.4453125 C-30.84272373 -3.5807232 -13.59449082 -6.52353083 0 0 Z M-29.265625 21.1953125 C-31.28122151 24.41611676 -31.28122151 24.41611676 -30.890625 29.2578125 C-20.990625 29.2578125 -11.090625 29.2578125 -0.890625 29.2578125 C-1.95615193 21.79912401 -2.08330973 21.06512777 -6.890625 16.2578125 C-15.11933623 11.20327918 -23.53632403 14.10907183 -29.265625 21.1953125 Z M-121.890625 89.2578125 C-122.68082031 89.99644531 -123.47101563 90.73507812 -124.28515625 91.49609375 C-151.07079641 117.15589264 -164.46670279 152.89897936 -166.890625 189.2578125 C-67.230625 189.2578125 32.429375 189.2578125 135.109375 189.2578125 C134.29467407 176.22204968 134.29467407 176.22204968 132.046875 163.5703125 C131.83135986 162.64532959 131.61584473 161.72034668 131.39379883 160.76733398 C124.87326897 134.28176664 111.36850868 111.15906128 92.48632812 91.68603516 C91.26440533 90.41861524 90.06774274 89.12694951 88.875 87.83203125 C67.02747542 64.71143662 32.5522821 49.23265042 1.109375 46.2578125 C0.47596191 46.19223145 -0.15745117 46.12665039 -0.81005859 46.05908203 C-46.01102638 41.59359907 -89.49879812 57.97497827 -121.890625 89.2578125 Z M-180.890625 205.2578125 C-179.42211607 215.41074861 -179.42211607 215.41074861 -176.890625 221.2578125 C-70.630625 221.2578125 35.629375 221.2578125 145.109375 221.2578125 C148.2584462 212.7050261 148.2584462 212.7050261 149.109375 205.2578125 C40.209375 205.2578125 -68.690625 205.2578125 -180.890625 205.2578125 Z " fill="#000000" transform="translate(215.890625,258.7421875)"/>
<path d="M0 0 C1.89479438 3.5667532 1.83347889 6.84736308 1.72753906 10.78222656 C1.72187927 11.57562439 1.71621948 12.36902222 1.71038818 13.1864624 C1.68804553 15.7137963 1.63785582 18.23969822 1.58691406 20.76660156 C1.56684621 22.48272688 1.54859593 24.19887448 1.53222656 25.91503906 C1.48818801 30.11610936 1.41917732 34.31611291 1.33691406 38.51660156 C2.57779785 38.48518066 2.57779785 38.48518066 3.84375 38.453125 C7.59134777 38.36998537 11.33875155 38.31794625 15.08691406 38.26660156 C16.38886719 38.23308594 17.69082031 38.19957031 19.03222656 38.16503906 C20.28261719 38.15214844 21.53300781 38.13925781 22.82128906 38.12597656 C24.54943848 38.09455566 24.54943848 38.09455566 26.3125 38.0625 C30.11203374 38.63298214 31.02868932 39.48059692 33.33691406 42.51660156 C33.83831072 45.77878952 33.83831072 45.77878952 33.84027863 49.74432373 C33.84609239 50.47711815 33.85190615 51.20991258 33.85789609 51.96491289 C33.87255816 54.43397012 33.85858264 56.90204286 33.84484863 59.37109375 C33.84945511 61.15361415 33.85580632 62.93613076 33.86375761 64.71863937 C33.88050888 69.62746217 33.87217831 74.53597528 33.85981274 79.44479942 C33.85078822 84.73458364 33.86471903 90.0243134 33.87573242 95.31408691 C33.89355006 105.68092518 33.88966322 116.04764784 33.87808186 126.4144907 C33.86906056 134.83733128 33.86781788 143.26013938 33.87217712 151.6829834 C33.87279006 152.8802426 33.87340299 154.07750181 33.87403449 155.31104159 C33.87531335 157.74299654 33.8766102 160.17495148 33.87792486 162.60690641 C33.88934017 185.42926179 33.87620204 208.25155298 33.85472339 231.07389784 C33.83685157 250.67071666 33.83995541 270.26744071 33.85839844 289.86425781 C33.87978836 312.60308519 33.88824144 335.34185626 33.87594938 358.08069229 C33.87467514 360.50386809 33.87341766 362.92704391 33.87217712 365.35021973 C33.87125147 367.13874898 33.87125147 367.13874898 33.87030712 368.96341014 C33.86684858 377.37938837 33.8726934 385.79533099 33.88209534 394.21130371 C33.89329585 404.46291424 33.89031635 414.71440222 33.86897236 424.96599865 C33.8584357 430.19987931 33.85438457 435.43355539 33.86756897 440.66743469 C33.87944464 445.45405539 33.87301043 450.2402809 33.85165876 455.02686548 C33.84717214 456.76300619 33.84950481 458.49917994 33.85916191 460.23529959 C33.8712446 462.58697425 33.8589355 464.93727757 33.84027863 467.28887939 C33.83962922 468.59750568 33.83897981 469.90613197 33.83831072 471.2544136 C33.2547074 475.05145472 32.36679671 476.23501914 29.33691406 478.51660156 C27.28298569 479.00879288 27.28298569 479.00879288 25.05950928 478.99761963 C23.78913818 479.00586761 23.78913818 479.00586761 22.49310303 479.01428223 C21.1120639 478.99271057 21.1120639 478.99271057 19.703125 478.97070312 C18.72718384 478.97128723 17.75124268 478.97187134 16.74572754 478.97247314 C13.52055266 478.96968687 10.29630245 478.93856843 7.07128906 478.90722656 C4.83498642 478.89976613 2.59867724 478.89407226 0.36236572 478.89007568 C-5.52325493 478.87480394 -11.40848068 478.83550838 -17.29394531 478.79125977 C-23.29975034 478.75034056 -29.30561919 478.7320718 -35.31152344 478.71191406 C-47.0955511 478.66901601 -58.87928568 478.60074567 -70.66308594 478.51660156 C-70.66308594 473.23660156 -70.66308594 467.95660156 -70.66308594 462.51660156 C-41.62308594 462.51660156 -12.58308594 462.51660156 17.33691406 462.51660156 C17.33691406 327.87660156 17.33691406 193.23660156 17.33691406 54.51660156 C-72.42308594 54.51660156 -162.18308594 54.51660156 -254.66308594 54.51660156 C-254.66308594 109.95660156 -254.66308594 165.39660156 -254.66308594 222.51660156 C-259.94308594 222.51660156 -265.22308594 222.51660156 -270.66308594 222.51660156 C-270.75562072 199.11663279 -270.82703301 175.71670797 -270.87033463 152.31659317 C-270.89097334 141.45188423 -270.91911898 130.58729096 -270.96484375 119.72265625 C-271.0046714 110.25473255 -271.03050922 100.78689261 -271.03943992 91.31888747 C-271.04466156 86.30408218 -271.05696153 81.28951651 -271.08600616 76.2747879 C-271.11311092 71.55686651 -271.12154095 66.83928397 -271.11551666 62.12129211 C-271.11661912 60.3878419 -271.12460241 58.65438061 -271.13990784 56.92099762 C-271.15975907 54.55728468 -271.15504378 52.19485732 -271.144104 49.83111572 C-271.15575537 49.1423964 -271.16740674 48.45367707 -271.17941117 47.74408746 C-271.14029277 44.62522543 -270.83037015 42.76521479 -269.07549381 40.15716553 C-265.93071931 38.01855382 -263.33702458 37.559455 -259.58354187 36.95306396 C-258.88148579 36.83526258 -258.17942972 36.7174612 -257.45609921 36.59609008 C-255.19399676 36.22063775 -252.92901902 35.86811542 -250.66308594 35.51660156 C-249.19650234 35.27773877 -247.73012393 35.0376127 -246.26395607 34.79621124 C-241.49168461 34.01724058 -236.71400988 33.27465871 -231.93579102 32.53320312 C-230.11481 32.248765 -228.29386271 31.96411085 -226.47294617 31.67926025 C-221.5664098 30.91233915 -216.65941078 30.14841753 -211.75231767 29.38506794 C-206.55479253 28.5760012 -201.35770629 27.76412449 -196.16056824 26.95257568 C-186.28792136 25.41136423 -176.41488559 23.87265908 -166.54170674 22.33485961 C-155.47936975 20.61171474 -144.4174791 18.8857134 -133.35562289 17.15948534 C-119.77873193 15.04085609 -106.20171956 12.92300558 -92.62446594 10.80670166 C-91.66638961 10.65731117 -90.70831329 10.50792067 -89.72120434 10.35400319 C-84.9991821 9.61786476 -80.27697353 8.88296446 -75.55434895 8.15069962 C-66.81174586 6.7940367 -58.07131912 5.42620823 -49.33635384 4.02109075 C-45.2115917 3.35832692 -41.08584416 2.70182117 -36.95999849 2.04584074 C-35.00574821 1.73335657 -33.05197659 1.41786131 -31.09874308 1.09908342 C-5.51849013 -3.07392245 -5.51849013 -3.07392245 0 0 Z M-24.23126221 17.31384277 C-25.36425751 17.49054001 -26.49725281 17.66723724 -27.6645813 17.84928894 C-28.90319916 18.04565445 -30.14181702 18.24201996 -31.41796875 18.44433594 C-32.73869781 18.65149273 -34.05946918 18.85837991 -35.38027954 19.0650177 C-38.9630076 19.62631014 -42.54513182 20.1913737 -46.12716007 20.7571125 C-49.87176304 21.34787176 -53.61690931 21.93516613 -57.36199951 22.52282715 C-64.45253006 23.63597811 -71.54256599 24.7522475 -78.63242984 25.86963606 C-86.70454134 27.14167497 -94.77719761 28.4102396 -102.84990168 29.67851162 C-119.45490597 32.28734089 -136.05922016 34.9005358 -152.66308594 37.51660156 C-152.66308594 37.84660156 -152.66308594 38.17660156 -152.66308594 38.51660156 C-107.12308594 38.51660156 -61.58308594 38.51660156 -14.66308594 38.51660156 C-14.66308594 31.25660156 -14.66308594 23.99660156 -14.66308594 16.51660156 C-18.03100882 16.51660156 -20.92410611 16.79361597 -24.23126221 17.31384277 Z " fill="#000000" transform="translate(462.6630859375,17.4833984375)"/>
<path d="M0 0 C5.7408466 2.38366087 9.82362281 7.33575409 14.17114258 11.63574219 C15.7814751 13.21948734 17.41419218 14.77734842 19.04882812 16.3359375 C28.79073013 25.83372697 35.94537306 36.43324165 36.3125 50.5 C36.27548666 57.97669416 34.18129768 65.05349594 31.171875 71.87792969 C30.7481564 74.19244264 30.7481564 74.19244264 32.72241211 76.29003906 C33.56553955 77.10698242 34.40866699 77.92392578 35.27734375 78.765625 C36.18291016 79.65507812 37.08847656 80.54453125 38.02148438 81.4609375 C38.99322643 82.39090005 39.96523516 83.32058402 40.9375 84.25 C41.90672943 85.19415339 42.87484357 86.13945315 43.84179688 87.0859375 C46.21710839 89.40216166 48.60327729 91.7059714 51 94 C54.18086518 92.49053489 56.29869906 90.92058175 58.75 88.375 C59.36359375 87.74335938 59.9771875 87.11171875 60.609375 86.4609375 C61.06828125 85.97882813 61.5271875 85.49671875 62 85 C61.72285156 84.33613281 61.44570313 83.67226562 61.16015625 82.98828125 C60.61681641 81.66376953 60.61681641 81.66376953 60.0625 80.3125 C59.52302734 79.00732422 59.52302734 79.00732422 58.97265625 77.67578125 C55.29624918 67.56197063 55.84153645 55.62707002 59.70703125 45.6796875 C61.89938802 41.13601154 64.5720346 37.69207831 68 34 C68.55800293 33.39043457 69.11600586 32.78086914 69.69091797 32.15283203 C81.16131134 19.73861612 91.40256607 11.11454376 108.8125 9.6875 C120.26443184 10.07454342 130.2856661 14.53117747 138.75 22.125 C145.81036607 29.7194836 149.60344824 39.71523827 150 50 C149.27375912 65.94187298 142.74425221 75.01293983 132 86 C131.29359375 86.76828125 130.5871875 87.5365625 129.859375 88.328125 C120.86411505 97.90844251 110.25811449 102.99010819 97.125 103.4375 C91.08967899 103.32549077 86.11887903 102.08251666 80.5234375 99.875 C77.81526453 98.78159143 77.81526453 98.78159143 74 99 C71.77658619 100.73915636 71.77658619 100.73915636 69.75 103 C69.04359375 103.7425 68.3371875 104.485 67.609375 105.25 C67.07828125 105.8275 66.5471875 106.405 66 107 C67.29217338 109.84605099 68.64177143 111.88513231 70.866745 114.0736084 C71.45151611 114.65390305 72.03628723 115.23419769 72.63877869 115.83207703 C73.27836014 116.4566127 73.91794159 117.08114838 74.5769043 117.72460938 C75.25179901 118.39176468 75.92669373 119.05891998 76.62203979 119.74629211 C78.08610607 121.19271791 79.55236286 122.63692905 81.02054405 124.07917786 C83.34073048 126.35998146 85.65334789 128.64820292 87.96382141 130.93884277 C94.53306424 137.44999272 101.11187959 143.95134216 107.70532227 150.43798828 C111.73821478 154.40660895 115.75896483 158.38718902 119.77219582 162.37568665 C121.3062555 163.89544574 122.84498163 165.41050897 124.3883419 166.92082214 C126.54078011 169.02778785 128.67751671 171.14953823 130.8112793 173.27539062 C131.77976051 174.21219414 131.77976051 174.21219414 132.76780701 175.16792297 C134.51420593 176.9263916 134.51420593 176.9263916 137 180 C136.55914816 184.01475093 134.47311009 185.99041711 131.6875 188.8125 C130.51767578 190.02873047 130.51767578 190.02873047 129.32421875 191.26953125 C127 193 127 193 125.05089188 192.78176212 C122.75196085 191.90545205 121.59059969 190.96069286 119.86151123 189.22227478 C119.26702179 188.63190933 118.67253235 188.04154388 118.06002808 187.43328857 C117.41985748 186.78233215 116.77968689 186.13137573 116.12011719 185.46069336 C115.43678314 184.77779739 114.7534491 184.09490143 114.04940796 183.39131165 C111.79138069 181.13119352 109.54416637 178.86063299 107.296875 176.58984375 C105.73382925 175.02120313 104.17012005 173.45322332 102.60577393 171.88587952 C98.4891894 167.75783775 94.38169305 163.62086623 90.27600098 159.48199463 C86.08526751 155.26057948 81.88603425 151.04763855 77.6875 146.83398438 C69.44997431 138.56427899 61.22202122 130.28511859 53 122 C50.15394901 123.29217338 48.11486769 124.64177143 45.9263916 126.866745 C45.34609695 127.45151611 44.76580231 128.03628723 44.16792297 128.63877869 C43.5433873 129.27836014 42.91885162 129.91794159 42.27539062 130.5769043 C41.60823532 131.25179901 40.94108002 131.92669373 40.25370789 132.62203979 C38.80728209 134.08610607 37.36307095 135.55236286 35.92082214 137.02054405 C33.64001854 139.34073048 31.35179708 141.65334789 29.06115723 143.96382141 C22.55000728 150.53306424 16.04865784 157.11187959 9.56201172 163.70532227 C5.59339105 167.73821478 1.61281098 171.75896483 -2.37568665 175.77219582 C-3.89544574 177.3062555 -5.41050897 178.84498163 -6.92082214 180.3883419 C-9.02778785 182.54078011 -11.14953823 184.67751671 -13.27539062 186.8112793 C-13.8999263 187.45693344 -14.52446198 188.10258759 -15.16792297 188.76780701 C-16.9263916 190.51420593 -16.9263916 190.51420593 -20 193 C-24.01475093 192.55914816 -25.99041711 190.47311009 -28.8125 187.6875 C-29.62332031 186.90761719 -30.43414062 186.12773437 -31.26953125 185.32421875 C-33 183 -33 183 -32.78176212 181.05089188 C-31.90545205 178.75196085 -30.96069286 177.59059969 -29.22227478 175.86151123 C-28.63190933 175.26702179 -28.04154388 174.67253235 -27.43328857 174.06002808 C-26.78233215 173.41985748 -26.13137573 172.77968689 -25.46069336 172.12011719 C-24.77779739 171.43678314 -24.09490143 170.7534491 -23.39131165 170.04940796 C-21.13119352 167.79138069 -18.86063299 165.54416637 -16.58984375 163.296875 C-15.02120313 161.73382925 -13.45322332 160.17012005 -11.88587952 158.60577393 C-7.75783775 154.4891894 -3.62086623 150.38169305 0.51800537 146.27600098 C4.73942052 142.08526751 8.95236145 137.88603425 13.16601562 133.6875 C21.43572101 125.44997431 29.71488141 117.22202122 38 109 C36.38223883 105.57517293 34.57656756 103.34309478 31.8671875 100.671875 C31.06152344 99.87265625 30.25585938 99.0734375 29.42578125 98.25 C28.58402344 97.425 27.74226563 96.6 26.875 95.75 C26.02550781 94.90953125 25.17601562 94.0690625 24.30078125 93.203125 C22.20495077 91.13084317 20.10459287 89.06337607 18 87 C17.40251953 87.20278564 16.80503906 87.40557129 16.18945312 87.61450195 C15.39474609 87.88222412 14.60003906 88.14994629 13.78125 88.42578125 C12.6065918 88.82277222 12.6065918 88.82277222 11.40820312 89.2277832 C-0.43605959 93.02577621 -12.14909873 93.43938707 -23.55834961 87.71679688 C-31.71919932 82.6860175 -38.06493744 76.39879117 -44.6875 69.5625 C-45.79266601 68.43721351 -46.89878072 67.31285796 -48.00585938 66.18945312 C-50.68160062 63.47021346 -53.34429521 60.73880544 -56 58 C-54.30413874 54.36696916 -52.26199512 52.05450954 -49.375 49.25 C-48.55773437 48.45078125 -47.74046875 47.6515625 -46.8984375 46.828125 C-46.27195313 46.22484375 -45.64546875 45.6215625 -45 45 C-41.09183218 46.58708769 -38.69963061 49.11537345 -35.7890625 52.12109375 C-34.78137307 53.14920918 -33.77355658 54.17720009 -32.765625 55.20507812 C-31.19429379 56.81981221 -29.6255355 58.43694604 -28.05957031 60.05688477 C-26.53849423 61.62654147 -25.0080775 63.18663025 -23.4765625 64.74609375 C-22.56986816 65.68122803 -21.66317383 66.6163623 -20.72900391 67.57983398 C-16.56199204 71.27527043 -12.48094294 73.29417491 -6.9375 73.8125 C-5.71353516 73.94591797 -5.71353516 73.94591797 -4.46484375 74.08203125 C-1.6037322 73.98681201 0.3823903 73.11008009 3 72 C2.54676865 71.5578717 2.09353729 71.11574341 1.62657166 70.66021729 C-3.07584728 66.06816647 -7.76077017 61.45880484 -12.43579102 56.83886719 C-14.18426402 55.11558363 -15.93719193 53.39680824 -17.69458008 51.68261719 C-20.21571672 49.22193093 -22.72053819 46.74562883 -25.22265625 44.265625 C-26.01527359 43.49881409 -26.80789093 42.73200317 -27.62452698 41.94195557 C-28.34534958 41.22151062 -29.06617218 40.50106567 -29.80883789 39.75878906 C-30.45059464 39.12813538 -31.09235138 38.49748169 -31.7535553 37.84771729 C-33 36 -33 36 -32.8422699 33.9262085 C-31.51917083 30.90037952 -29.30011774 29.02289808 -26.9375 26.75 C-26.01839844 25.85796875 -25.09929687 24.9659375 -24.15234375 24.046875 C-23.44207031 23.37140625 -22.73179687 22.6959375 -22 22 C-16.93288701 26.24210136 -12.18776629 30.67717089 -7.53515625 35.3671875 C-6.85698349 36.04677521 -6.17881073 36.72636292 -5.48008728 37.42654419 C-3.33850859 39.57367002 -1.20045471 41.72426627 0.9375 43.875 C2.39885589 45.34137773 3.86044226 46.8075258 5.32226562 48.2734375 C8.88417935 51.84631 12.44293865 55.42229684 16 59 C18.38834579 54.62295193 18.70971203 50.97601933 17.53515625 46.05078125 C14.17430602 35.9284572 6.0413438 28.77880818 -1.375 21.5 C-2.30183594 20.5821875 -3.22867188 19.664375 -4.18359375 18.71875 C-6.4512111 16.47451015 -8.72338511 14.23510578 -11 12 C-10.06122074 10.8934059 -9.12079084 9.78821201 -8.1796875 8.68359375 C-7.39440674 7.76018188 -7.39440674 7.76018188 -6.59326172 6.81811523 C-4.4984209 4.42763415 -2.28027529 2.21320837 0 0 Z M86 40 C85.33484375 40.60328125 84.6696875 41.2065625 83.984375 41.828125 C78.59916625 46.83871053 74.97489885 52.36037764 73.0625 59.5 C72.9351091 66.63389027 74.40391733 72.41016972 79 78 C84.39864762 83.36008585 89.00084032 86.27261914 96.8125 86.375 C97.78832031 86.40335938 98.76414062 86.43171875 99.76953125 86.4609375 C108.33938973 85.23815237 113.85015435 79.82724215 119.75 73.875 C120.49121094 73.16601562 121.23242188 72.45703125 121.99609375 71.7265625 C127.90953524 65.8237376 131.31056758 59.82602693 132.5 51.5 C131.33843019 43.36901131 128.59810055 37.5128591 122.0703125 32.40625 C107.9450622 22.81174036 96.80213654 29.48027226 86 40 Z " fill="#000000" transform="translate(292,90)"/>
<path d="M0 0 C2.18085285 0.00315012 4.36033005 -0.02036031 6.54101562 -0.0456543 C16.42835467 -0.08892219 25.83705401 0.9288085 35.44726562 3.31567383 C35.77726563 3.64567383 36.10726562 3.97567383 36.44726562 4.31567383 C35.96327847 9.8331274 34.87882783 14.97117493 33.44726562 20.31567383 C28.89198417 19.81459287 24.33954857 19.30432378 19.79101562 18.74536133 C-13.34390081 14.83834257 -45.43402172 22.53834128 -71.89453125 43.38208008 C-83.58109361 52.92925929 -92.21622573 63.81091086 -100.55273438 76.31567383 C-104.61498986 75.73744287 -107.40035784 74.42449646 -110.86523438 72.25317383 C-111.74824219 71.70532227 -112.63125 71.1574707 -113.54101562 70.59301758 C-114.20488281 70.17149414 -114.86875 69.7499707 -115.55273438 69.31567383 C-112.35862974 52.61397009 -91.86712859 35.19695002 -78.67773438 25.62817383 C-65.02286476 16.51767961 -50.54797309 9.21803069 -34.80273438 4.50317383 C-34.15457764 4.30828369 -33.5064209 4.11339355 -32.83862305 3.91259766 C-21.9810353 0.84041078 -11.23306212 -0.0337592 0 0 Z " fill="#000000" transform="translate(197.552734375,319.684326171875)"/>
<path d="M0 0 C5.28 0 10.56 0 16 0 C16 47.52 16 95.04 16 144 C10.72 144 5.44 144 0 144 C0 96.48 0 48.96 0 0 Z " fill="#000000" transform="translate(160,80)"/>
<path d="M0 0 C34.32 0 68.64 0 104 0 C104 5.28 104 10.56 104 16 C69.68 16 35.36 16 0 16 C0 10.72 0 5.44 0 0 Z " fill="#000000" transform="translate(320,304)"/>
<path d="M0 0 C23.76 0 47.52 0 72 0 C72 5.28 72 10.56 72 16 C48.24 16 24.48 16 0 16 C0 10.72 0 5.44 0 0 Z " fill="#000000" transform="translate(352,336)"/>
<path d="M0 0 C15.84 0 31.68 0 48 0 C48 5.28 48 10.56 48 16 C32.16 16 16.32 16 0 16 C0 10.72 0 5.44 0 0 Z " fill="#000000" transform="translate(376,368)"/>
<path d="M0 0 C5.76044212 0.60636233 10.72014369 2.75658279 16 5 C14.84941444 10.39795989 13.57578241 15.70987333 12 21 C6.147205 20.48517081 0.6702363 19.54642808 -5 18 C-4.42934122 11.58008874 -2.32655091 5.98410537 0 0 Z " fill="#000000" transform="translate(73,405)"/>
<path d="M0 0 C5.28 0 10.56 0 16 0 C16 5.28 16 10.56 16 16 C10.72 16 5.44 16 0 16 C0 10.72 0 5.44 0 0 Z " fill="#000000" transform="translate(440,368)"/>
<path d="M0 0 C5.28 0 10.56 0 16 0 C16 5.28 16 10.56 16 16 C10.72 16 5.44 16 0 16 C0 10.72 0 5.44 0 0 Z " fill="#000000" transform="translate(440,336)"/>
<path d="M0 0 C5.28 0 10.56 0 16 0 C16 5.28 16 10.56 16 16 C10.72 16 5.44 16 0 16 C0 10.72 0 5.44 0 0 Z " fill="#000000" transform="translate(440,304)"/>
</svg>
